# xmcd
#
# Track frame offsets: 
#        150
#        10766
#        28493
#        42529
#        62651
#        75215
#        94259
#        107673
#        126375
#        145316
#        154678
#        165979
#        184823
#        192120
#        201464
#        216033
#        226389
#        239571
#        255105
#        267586
#        274315
#        289741
#
# Disc length: 4189 seconds
#
# Revision: 0
# Processed by: cddbd v1.5.2PL0 Copyright (c) Steve Scherf et al.
# Submitted via: ExactAudioCopy v0.99pb5
#
DISCID=41105b16
DTITLE=Philippe McKenzie - Morley Loon
DYEAR=1982
DGENRE=Native American
TTITLE0=Tanite mack tshe tiack (One Must)
TTITLE1=Neka (My Mother)
TTITLE2=Mistashipu (Great river)
TTITLE3=Nte ntepen ni mamituneniten (Meditation)
TTITLE4=Epame Nuentan (If it pleases)
TTITLE5=Innu (The Indian)
TTITLE6=Nemoshon (The Elder)
TTITLE7=Nuitsheuaken (My friend the hunter)
TTITLE8=Ka papeikupesh (Lonely)
TTITLE9=Nuitsheon (Friendship)
TTITLE10=Esh paktichuck (The day approaches)
TTITLE11=Agajee Dona Nooch (To Hunt No More)
TTITLE12=Amendo Na Nooch (Friendship-Kinship)
TTITLE13=Wee Jee (Is It Over)
TTITLE14=Yoo Indo Deem Awin (Hunter's Spirit Song)
TTITLE15=Nooj Meech (North Land , My Land)
TTITLE16=Deb Skum (My Own)
TTITLE17=Ginscoom-Tin (Thanks To You)
TTITLE18=Nee Dumphs (I Wish To See Her)
TTITLE19=Caminconoch (Spirits)
TTITLE20=N'Doheeno (The Hunter)
TTITLE21=Enu-Noog-Amun (Way of the Indian)
EXTD=
EXTT0=
EXTT1=
EXTT2=
EXTT3=
EXTT4=
EXTT5=
EXTT6=
EXTT7=
EXTT8=
EXTT9=
EXTT10=
EXTT11=
EXTT12=
EXTT13=
EXTT14=
EXTT15=
EXTT16=
EXTT17=
EXTT18=
EXTT19=
EXTT20=
EXTT21=
PLAYORDER=
